<svg xmlns="http://www.w3.org/2000/svg" width="34.143" height="21.34" viewBox="0 0 34.143 21.34">
  <path id="behance" d="M13.752,14.863a4.484,4.484,0,0,0,2.869-4.373C16.621,6.318,13.5,5.3,9.905,5.3H0V26.245H10.184c3.817,0,7.4-1.826,7.4-6.081A5.048,5.048,0,0,0,13.752,14.863ZM4.618,8.877H8.951c1.666,0,3.165.467,3.165,2.393,0,1.779-1.168,2.494-2.816,2.494H4.618ZM9.555,22.688H4.618V16.92H9.65c2.033,0,3.32.845,3.32,2.99,0,2.116-1.535,2.778-3.414,2.778ZM30.806,8.463H22.288V6.4h8.518V8.463Zm3.337,10.419c0-4.485-2.632-8.226-7.4-8.226-4.635,0-7.783,3.475-7.783,8.025,0,4.722,2.982,7.96,7.783,7.96,3.634,0,5.987-1.631,7.119-5.1H30.172c-.4,1.294-2.033,1.98-3.3,1.98-2.448,0-3.734-1.43-3.734-3.859H34.108C34.126,19.414,34.143,19.148,34.143,18.882Zm-11-1.844A3.261,3.261,0,0,1,26.609,13.8c2.1,0,3.154,1.229,3.331,3.238Z" transform="translate(0 -5.302)"/>
</svg>
