<svg xmlns="http://www.w3.org/2000/svg" width="29.022" height="29.025" viewBox="0 0 29.022 29.025">
  <path id="github" d="M9.707,23.933c0,.12-.135.216-.3.216-.193.018-.328-.078-.328-.216,0-.12.135-.216.3-.216C9.555,23.7,9.707,23.8,9.707,23.933Zm-1.82-.27c-.041.12.076.258.252.294a.271.271,0,0,0,.363-.12c.035-.12-.076-.258-.252-.312A.3.3,0,0,0,7.887,23.663Zm2.586-.1c-.17.042-.287.156-.269.294.018.12.17.2.345.156s.287-.156.269-.276S10.643,23.543,10.474,23.561Zm3.85-23C6.208.563,0,6.882,0,15.207A15.025,15.025,0,0,0,9.918,29.563c.749.138,1.012-.336,1.012-.726,0-.372-.018-2.425-.018-3.685,0,0-4.1.9-4.956-1.789,0,0-.667-1.747-1.627-2.2,0,0-1.34-.942.094-.924a3.076,3.076,0,0,1,2.259,1.548,3.05,3.05,0,0,0,4.266,1.254,3.369,3.369,0,0,1,.936-2.023c-3.271-.372-6.571-.858-6.571-6.632a4.609,4.609,0,0,1,1.381-3.535A5.807,5.807,0,0,1,6.846,6.78c1.223-.39,4.037,1.62,4.037,1.62a13.489,13.489,0,0,1,7.349,0s2.814-2.017,4.037-1.62a5.8,5.8,0,0,1,.152,4.075,4.72,4.72,0,0,1,1.51,3.535c0,5.792-3.446,6.254-6.717,6.632a3.6,3.6,0,0,1,.995,2.785c0,2.023-.018,4.525-.018,5.017,0,.39.269.864,1.012.726a14.89,14.89,0,0,0,9.818-14.344A14.523,14.523,0,0,0,14.324.563Zm-8.636,20.7c-.076.06-.059.2.041.312.094.1.228.138.3.06.076-.06.059-.2-.041-.312C5.9,21.227,5.763,21.185,5.687,21.263Zm-.632-.486c-.041.078.018.174.135.234a.171.171,0,0,0,.252-.042c.041-.078-.018-.174-.135-.234C5.19,20.7,5.1,20.716,5.055,20.776Zm1.9,2.137c-.094.078-.059.258.076.372.135.138.3.156.38.06.076-.078.041-.258-.076-.372C7.2,22.835,7.027,22.817,6.951,22.913Zm-.667-.882c-.094.06-.094.216,0,.354s.252.2.328.138a.279.279,0,0,0,0-.372C6.53,22.013,6.378,21.953,6.284,22.031Z" transform="translate(0 -0.563)"/>
</svg>
