<svg xmlns="http://www.w3.org/2000/svg" width="29" height="29" viewBox="0 0 29 29">
  <path id="research-gate" d="M0,2.25v29H29v-29ZM16.973,23.9a3.085,3.085,0,0,1-3.237-.919A26.986,26.986,0,0,1,11,18.86c-.576,0-.952,0-1.385-.039v3c0,1.521.388,1.372,1.67,1.547V23.9c-.447-.019-1.5-.052-2.3-.052-.848,0-1.69.039-2.175.052v-.524c1-.188,1.424-.084,1.424-1.547V14.743c0-1.463-.414-1.359-1.424-1.547v-.524c1.67.065,3.437-.039,4.59-.039,2.052,0,3.619.932,3.619,2.952A3.317,3.317,0,0,1,12.48,18.66a21.589,21.589,0,0,0,2.732,3.813,2.615,2.615,0,0,0,1.761.952Zm1.482-8.739a1.925,1.925,0,0,1-2.084-2.084V10.989a2.011,2.011,0,0,1,2.2-1.968A1.883,1.883,0,0,1,20.54,10.18l-.693.466a1.437,1.437,0,0,0-1.275-.809A1.335,1.335,0,0,0,17.3,11.112v1.735c0,.867.427,1.508,1.159,1.508.913,0,1.392-.706,1.392-1.735H18.688v-.693h1.968C20.656,13.254,20.96,15.158,18.455,15.158Zm-7.541,2.894c-.608,0-.88-.019-1.295-.052V13.488c.414-.039.971-.039,1.456-.039a2.115,2.115,0,0,1,2.408,2.233,2.311,2.311,0,0,1-2.57,2.369Z" transform="translate(0 -2.25)"/>
</svg>
